<svg width="30" height="28" viewBox="0 0 30 28" fill="none" xmlns="http://www.w3.org/2000/svg">
<path d="M24.3333 0.333332L17.6666 7V21.6667L24.3333 15.6667V0.333332ZM27 5.66667V23.6667C25.5333 23.2 23.9333 23 22.3333 23C20.0666 23 16.8 23.8667 15 25V7C13.0666 5.53333 10.2666 5 7.66665 5C5.06665 5 2.26665 5.53333 0.333313 7V26.5333C0.333313 26.8667 0.666646 27.2 0.99998 27.2C1.13331 27.2 1.19998 27.1333 1.33331 27.1333C3.13331 26.2667 5.73331 25.6667 7.66665 25.6667C10.2666 25.6667 13.0666 26.2 15 27.6667C16.8 26.5333 20.0666 25.6667 22.3333 25.6667C24.5333 25.6667 26.8 26.0667 28.6666 27.0667C28.8 27.1333 28.8666 27.1333 29 27.1333C29.3333 27.1333 29.6666 26.8 29.6666 26.4667V7C28.8666 6.4 28 6 27 5.66667ZM12.3333 23.5467C10.6666 23.12 8.99998 23 7.66665 23C6.25331 23 4.57331 23.2533 2.99998 23.6667V8.50667C4.21331 7.97333 5.85331 7.66667 7.66665 7.66667C9.47998 7.66667 11.12 7.97333 12.3333 8.50667V23.5467Z" fill="#999999"/>
</svg>
