<svg width="22" height="22" viewBox="0 0 22 22" fill="none" xmlns="http://www.w3.org/2000/svg">
<path d="M11 0.333344C12.4145 0.333344 13.771 0.895246 14.7712 1.89544C15.7714 2.89563 16.3333 4.25219 16.3333 5.66668C16.3333 7.08117 15.7714 8.43772 14.7712 9.43791C13.771 10.4381 12.4145 11 11 11C9.58549 11 8.22894 10.4381 7.22874 9.43791C6.22855 8.43772 5.66665 7.08117 5.66665 5.66668C5.66665 4.25219 6.22855 2.89563 7.22874 1.89544C8.22894 0.895246 9.58549 0.333344 11 0.333344V0.333344ZM11 13.6667C16.8933 13.6667 21.6666 16.0533 21.6666 19V21.6667H0.333313V19C0.333313 16.0533 5.10665 13.6667 11 13.6667Z" fill="#999999"/>
</svg>
